<svg width="170" height="170" viewBox="0 0 170 170" fill="none" xmlns="http://www.w3.org/2000/svg">
<circle cx="85" cy="85" r="85" fill="url(#paint0_linear_148_140)"/>
<g clip-path="url(#clip0_148_140)">
<path d="M95.25 108.917C95.2505 110.641 94.5994 112.301 93.4272 113.565C92.255 114.829 90.6482 115.604 88.9291 115.733L88.4166 115.75H81.5833C79.8593 115.751 78.1989 115.099 76.9348 113.927C75.6707 112.755 74.8964 111.148 74.7671 109.429L74.75 108.917H95.25ZM85 50.8333C91.2011 50.8332 97.16 53.2417 101.619 57.5507C106.079 61.8598 108.69 67.7325 108.903 73.93L108.917 74.75V87.6103L115.142 100.061C115.413 100.604 115.549 101.205 115.538 101.812C115.527 102.419 115.368 103.015 115.076 103.548C114.785 104.08 114.368 104.534 113.862 104.871C113.357 105.207 112.777 105.416 112.173 105.479L111.78 105.5H58.2201C57.6125 105.5 57.0139 105.353 56.4757 105.071C55.9374 104.789 55.4755 104.381 55.1295 103.882C54.7835 103.382 54.5638 102.806 54.4892 102.203C54.4145 101.6 54.4872 100.988 54.701 100.419L54.8581 100.061L61.0833 87.6103V74.75C61.0833 68.4069 63.6031 62.3236 68.0883 57.8384C72.5736 53.3531 78.6569 50.8333 85 50.8333Z" fill="white"/>
</g>
<defs>
<linearGradient id="paint0_linear_148_140" x1="38.9583" y1="-61.9793" x2="206.194" y2="-51.3161" gradientUnits="userSpaceOnUse">
<stop stop-color="#4CAD73"/>
<stop offset="1" stop-color="#4CAD73"/>
</linearGradient>
<clipPath id="clip0_148_140">
<rect width="82" height="82" fill="white" transform="translate(44 44)"/>
</clipPath>
</defs>
</svg>
